<?xml version="1.0" encoding="utf-8"?>
<!-- Generator: Adobe Illustrator 24.1.2, SVG Export Plug-In . SVG Version: 6.00 Build 0)  -->
<svg version="1.1" id="Слой_1" xmlns="http://www.w3.org/2000/svg" xmlns:xlink="http://www.w3.org/1999/xlink" x="0px" y="0px"
	 viewBox="0 0 1920 1080" style="enable-background:new 0 0 1920 1080;" xml:space="preserve">
<style type="text/css">
	.st0{fill-rule:evenodd;clip-rule:evenodd;fill:#104233;}
	.st1{fill-rule:evenodd;clip-rule:evenodd;fill:#E95C20;}
	.st2{fill-rule:evenodd;clip-rule:evenodd;}
</style>
<g id="Слой_x0020_1">
	<path class="st0" d="M77.8,603.1h343c91.8,0,160.5-20.4,193.9-105.4c2.9-7.1,4.5-13.6,7.1-21.4c19.1-62.9,36.6-174.8-45.1-202
		c-59-19.8-105.4-14.6-168.6-14.6L390,360.3c18.5,0,28.5,0.6,29.8,18.8c0.6,7.1-4.2,35.7-6.8,42.8c-9.1,25.6-36.6,18.2-82.4,18.2
		c4.2-18.8,6.5-39.6,10.4-59c3.9-19.1,6.5-39.9,10.4-59.3l20.4-121.6h268.4c2.9-12.3,5.5-28.9,7.5-41.5c2.3-14.6,5.2-28.5,7.5-41.5
		c3.6-21.1,13.6-70,13.6-87.2H176c-3.2,40.5-51.6,291.1-61.6,356.3L77.8,603.1L77.8,603.1z"/>
	<path class="st0" d="M647.8,603.1h224.4l65.5-381.3c3.6-20.7,3.6-20.7,3.6-20.7l310.6-0.3c0.3-18.5,27.9-154,28.5-170.2H746
		c-13,55.8-40.2,230.5-49.6,285.6C690.6,350.2,647.8,583,647.8,603.1L647.8,603.1z"/>
	<path class="st0" d="M1920,30.6h-485c-0.6,32.1-55.8,247.1-72.3,286.3c-12.3,29.8-26.9,71.3-54.8,89.8
		c-13.6,8.8-31.1,19.5-51.2,21.1c-1.3,14.3-5.5,29.8-7.8,43.8l-23.3,131.6c96.9,0,152.1-20.4,217.9-68.7
		c17.2-12.6,35.7-32.4,48.6-49.3c39.9-51.9,67.8-137.1,84.3-204.6c4.2-17.5,17.8-65.8,18.2-80.1h296.7c1-12,5.2-30.8,7.1-41.8
		L1920,30.6L1920,30.6z"/>
	<path class="st1" d="M54.5,734.8h1744c6.5-27.2,9.1-58,15.6-85.3H67.4C67.1,671.2,54.5,711.1,54.5,734.8z"/>
	<path class="st0" d="M1594.8,603.1h227c2.9-12.3,5.5-28.9,7.5-41.5c2.6-15.6,5.5-29.8,7.8-43.8c4.5-29.8,9.4-56.1,14.6-85.9
		l29.5-171.8h-227L1594.8,603.1L1594.8,603.1z"/>
	<path class="st0" d="M957.4,603.1h224.4l43.8-258.1c2.3-13.9,5.5-28.5,7.5-41.5c1.6-10.1,4.9-37.3,8.1-43.8h-224.4L957.4,603.1
		L957.4,603.1z"/>
	<path class="st2" d="M1628.9,877.1c1.6-8.1,4.5-21.1,22.4-19.5c23.3,1.9,19.1,16.5,10.1,70c-4.5,27.2-3.9,43.8-27.2,43.4
		C1609.4,971.1,1614.9,944.2,1628.9,877.1z M1509.5,979.9c0,68.4,52.5,69.7,115.7,69.7h2.9c33.4,0,77.2-3.6,99.9-26.6
		c13-13,17.5-19.8,23.7-38.3c12-36.6,30.5-127.1,23-161.8c-12.3-56.1-84.9-47-138.8-47c-58.7,0-83.3,19.8-101.5,63.5
		c-7.5,18.5-11.3,45.1-15.2,67.4C1515.7,928.6,1509.5,954.3,1509.5,979.9L1509.5,979.9z"/>
	<path class="st2" d="M759,1044.4c75.9,0,101.8,0.6,101.8,0.6c2.6-26.9,9.4-56.1,14.3-83c15.2,0,15.2,0,15.2,0s1.9,20.1,9.1,63.2
		c1.9,11,3.2,19.1,3.2,19.1s36.3,0,106.7,0c0-17.8-6.2-44.7-9.4-62.9l-8.8-63.5c0-11.3,9.1-25,12.6-33.7l44.1-102.8h-90.5
		c-8.4,0-16.5,0-16.5,0s-5.5,13.3-20.1,56.4c-4.5,13.9-11.7,31.8-15.2,46.7h-18.2l13.6-76.8c1-6.5,3.9-18.8,4.5-26.3H802.4
		L759,1044.4L759,1044.4z"/>
	<path class="st2" d="M227.3,1047c84.3,0,124.8-42.5,149.5-108.6c5.2-14.3,18.2-52.8,18.5-69.4H426c0,20.7-28.5,157.6-28.5,175.4
		h103.4l23.3-131.6c3.6-22.7,7.1-42.8,11.3-66.1c4.2-23,6.8-44.4,12-65.5H323.2c-0.3,12.3-5.2,26.6-7.1,36.6
		c-5.5,26.6-19.8,86.2-29.8,107c-25,52.2-44.7,43.8-45.4,45.1L227.3,1047L227.3,1047z"/>
	<path class="st2" d="M1362.7,915.3c10.4-51.9,10.4-51.9,10.4-51.9c25.6,0,38.9-1.9,33.7,29.8C1402.6,921.2,1389.3,917,1362.7,915.3
		z M1238.8,1044.4h103.1c7.8-46.4,0,0,7.8-46.4c59.7,0,102.5,4.5,131-29.2c21.7-25.6,52.2-141.7,18.2-171.5
		c-10.1-8.8-27.6-16.2-45.7-16.2h-170.2C1238.8,1044.4,1282.6,781.1,1238.8,1044.4L1238.8,1044.4z"/>
	<path class="st2" d="M531.7,1044.4h198.7l13-74.9h-95.3c7.8-25.3,7.8-25.3,7.8-25.3c90.1-0.6,32.1-0.6,90.1-0.6
		c0-9.7,7.8-56.7,10.4-61.9h-92.7c6.8-24.3,7.1-25.3,7.1-25.3l93.4-0.6c1-11,3.9-25.3,6.2-37.6c2.3-13.3,3.9-25.3,6.8-37.3H575.8
		L536.9,1010C531.7,1044.4,536.9,1010.7,531.7,1044.4z"/>
	<path class="st2" d="M44.1,786.3c-13,77.5,0,0-13,77.5c34.4-1.9,61-1.3,95.3-1.3c11.7,0,10.1,22,10.1,26.9H49.3
		c-1.3,14.9-7.5,31.8-7.8,46.4h85.3l-6.2,20.1c-1.9,6.5-43.8,5.5-99.9,5.5c-20.7,77.5,0,0-20.7,77.5c35,7.8,148.5,17.8,178,4.5
		c22.4-10.4,35-41.8,42.8-64.8c11.3-33.4,28.9-137.5,18.8-163.7C217.9,765.2,86.9,776.3,44.1,786.3L44.1,786.3z"/>
	<path class="st2" d="M1047.9,866.4h49c-6.8,45.1,0,0-6.8,45.1c-2.9,16.5-4.9,27.6-7.8,43.8c-2.9,16.5-4.9,27.6-7.8,43.8
		c-2.6,14.9-6.2,30.2-6.2,45.4h100.5c6.2-26.9,11.3-59,15.9-87.5l15.2-90.5c49,0,49,0,49,0s0.6-3.6,7.8-38.6c2.3-14.3,0,0,7.8-46.4
		h-201.3L1047.9,866.4L1047.9,866.4z"/>
</g>
</svg>
